<svg width="218" height="218" viewBox="0 0 218 218" fill="none" xmlns="http://www.w3.org/2000/svg">
<path d="M159.012 98.11C145.492 123.58 123.71 144.37 97.1394 157.42L76.4839 137.62C73.9489 135.19 70.1933 134.38 66.9072 135.46C56.3917 138.79 45.0311 140.59 33.3889 140.59C28.225 140.59 24 144.64 24 149.59V181C24 185.95 28.225 190 33.3889 190C121.551 190 193 121.51 193 37C193 32.05 188.775 28 183.611 28H150.75C145.586 28 141.361 32.05 141.361 37C141.361 48.25 139.483 59.05 136.009 69.13C134.977 72.28 135.728 75.79 138.357 78.31L159.012 98.11Z" fill="#FF1313"/>
</svg>
