<svg width="238" height="222" viewBox="0 0 238 222" fill="none" xmlns="http://www.w3.org/2000/svg">
<rect width="6" height="6" rx="3" fill="white" fill-opacity="0.15"/>
<rect x="29" width="6" height="6" rx="3" fill="white" fill-opacity="0.15"/>
<rect x="29" y="27" width="6" height="6" rx="3" fill="white" fill-opacity="0.15"/>
<rect x="58" width="6" height="6" rx="3" fill="white" fill-opacity="0.15"/>
<rect x="58" y="27" width="6" height="6" rx="3" fill="white" fill-opacity="0.15"/>
<rect x="58" y="54" width="6" height="6" rx="3" fill="white" fill-opacity="0.15"/>
<rect x="87" width="6" height="6" rx="3" fill="white" fill-opacity="0.15"/>
<rect x="87" y="27" width="6" height="6" rx="3" fill="white" fill-opacity="0.15"/>
<rect x="87" y="54" width="6" height="6" rx="3" fill="white" fill-opacity="0.15"/>
<rect x="87" y="81" width="6" height="6" rx="3" fill="white" fill-opacity="0.15"/>
<rect x="116" width="6" height="6" rx="3" fill="white" fill-opacity="0.15"/>
<rect x="116" y="27" width="6" height="6" rx="3" fill="white" fill-opacity="0.15"/>
<rect x="116" y="54" width="6" height="6" rx="3" fill="white" fill-opacity="0.15"/>
<rect x="116" y="81" width="6" height="6" rx="3" fill="white" fill-opacity="0.15"/>
<rect x="116" y="108" width="6" height="6" rx="3" fill="white" fill-opacity="0.15"/>
<rect x="145" width="6" height="6" rx="3" fill="white" fill-opacity="0.15"/>
<rect x="145" y="27" width="6" height="6" rx="3" fill="white" fill-opacity="0.15"/>
<rect x="145" y="54" width="6" height="6" rx="3" fill="white" fill-opacity="0.15"/>
<rect x="145" y="81" width="6" height="6" rx="3" fill="white" fill-opacity="0.15"/>
<rect x="145" y="108" width="6" height="6" rx="3" fill="white" fill-opacity="0.15"/>
<rect x="145" y="135" width="6" height="6" rx="3" fill="white" fill-opacity="0.15"/>
<rect x="174" width="6" height="6" rx="3" fill="white" fill-opacity="0.15"/>
<rect x="203" width="6" height="6" rx="3" fill="white" fill-opacity="0.15"/>
<rect x="232" width="6" height="6" rx="3" fill="white" fill-opacity="0.15"/>
<rect x="174" y="27" width="6" height="6" rx="3" fill="white" fill-opacity="0.15"/>
<rect x="203" y="27" width="6" height="6" rx="3" fill="white" fill-opacity="0.15"/>
<rect x="232" y="27" width="6" height="6" rx="3" fill="white" fill-opacity="0.15"/>
<rect x="174" y="54" width="6" height="6" rx="3" fill="white" fill-opacity="0.15"/>
<rect x="203" y="54" width="6" height="6" rx="3" fill="white" fill-opacity="0.15"/>
<rect x="232" y="54" width="6" height="6" rx="3" fill="white" fill-opacity="0.15"/>
<rect x="174" y="81" width="6" height="6" rx="3" fill="white" fill-opacity="0.15"/>
<rect x="203" y="81" width="6" height="6" rx="3" fill="white" fill-opacity="0.15"/>
<rect x="232" y="81" width="6" height="6" rx="3" fill="white" fill-opacity="0.15"/>
<rect x="174" y="108" width="6" height="6" rx="3" fill="white" fill-opacity="0.15"/>
<rect x="203" y="108" width="6" height="6" rx="3" fill="white" fill-opacity="0.15"/>
<rect x="232" y="108" width="6" height="6" rx="3" fill="white" fill-opacity="0.15"/>
<rect x="174" y="135" width="6" height="6" rx="3" fill="white" fill-opacity="0.15"/>
<rect x="203" y="135" width="6" height="6" rx="3" fill="white" fill-opacity="0.15"/>
<rect x="232" y="135" width="6" height="6" rx="3" fill="white" fill-opacity="0.15"/>
<rect x="174" y="162" width="6" height="6" rx="3" fill="white" fill-opacity="0.15"/>
<rect x="203" y="162" width="6" height="6" rx="3" fill="white" fill-opacity="0.15"/>
<rect x="203" y="189" width="6" height="6" rx="3" fill="white" fill-opacity="0.15"/>
<rect x="232" y="162" width="6" height="6" rx="3" fill="white" fill-opacity="0.15"/>
<rect x="232" y="189" width="6" height="6" rx="3" fill="white" fill-opacity="0.15"/>
<rect x="232" y="216" width="6" height="6" rx="3" fill="white" fill-opacity="0.15"/>
</svg>
