<svg width="267" height="438" viewBox="0 0 267 438" fill="none" xmlns="http://www.w3.org/2000/svg">
<rect width="6" height="6" rx="3" fill="white" fill-opacity="0.25"/>
<rect y="27" width="6" height="6" rx="3" fill="white" fill-opacity="0.25"/>
<rect y="54" width="6" height="6" rx="3" fill="white" fill-opacity="0.25"/>
<rect y="81" width="6" height="6" rx="3" fill="white" fill-opacity="0.25"/>
<rect y="108" width="6" height="6" rx="3" fill="white" fill-opacity="0.25"/>
<rect y="135" width="6" height="6" rx="3" fill="white" fill-opacity="0.25"/>
<rect y="162" width="6" height="6" rx="3" fill="white" fill-opacity="0.25"/>
<rect y="189" width="6" height="6" rx="3" fill="white" fill-opacity="0.25"/>
<rect y="216" width="6" height="6" rx="3" fill="white" fill-opacity="0.25"/>
<rect y="243" width="6" height="6" rx="3" fill="white" fill-opacity="0.25"/>
<rect y="270" width="6" height="6" rx="3" fill="white" fill-opacity="0.25"/>
<rect y="297" width="6" height="6" rx="3" fill="white" fill-opacity="0.25"/>
<rect y="324" width="6" height="6" rx="3" fill="white" fill-opacity="0.25"/>
<rect y="351" width="6" height="6" rx="3" fill="white" fill-opacity="0.25"/>
<rect y="378" width="6" height="6" rx="3" fill="white" fill-opacity="0.25"/>
<rect y="405" width="6" height="6" rx="3" fill="white" fill-opacity="0.25"/>
<rect y="432" width="6" height="6" rx="3" fill="white" fill-opacity="0.25"/>
<rect x="29" width="6" height="6" rx="3" fill="white" fill-opacity="0.25"/>
<rect x="29" y="27" width="6" height="6" rx="3" fill="white" fill-opacity="0.25"/>
<rect x="29" y="54" width="6" height="6" rx="3" fill="white" fill-opacity="0.25"/>
<rect x="29" y="81" width="6" height="6" rx="3" fill="white" fill-opacity="0.25"/>
<rect x="29" y="108" width="6" height="6" rx="3" fill="white" fill-opacity="0.25"/>
<rect x="29" y="135" width="6" height="6" rx="3" fill="white" fill-opacity="0.25"/>
<rect x="29" y="162" width="6" height="6" rx="3" fill="white" fill-opacity="0.25"/>
<rect x="29" y="189" width="6" height="6" rx="3" fill="white" fill-opacity="0.25"/>
<rect x="29" y="216" width="6" height="6" rx="3" fill="white" fill-opacity="0.25"/>
<rect x="29" y="243" width="6" height="6" rx="3" fill="white" fill-opacity="0.25"/>
<rect x="29" y="270" width="6" height="6" rx="3" fill="white" fill-opacity="0.25"/>
<rect x="29" y="297" width="6" height="6" rx="3" fill="white" fill-opacity="0.25"/>
<rect x="29" y="324" width="6" height="6" rx="3" fill="white" fill-opacity="0.25"/>
<rect x="29" y="351" width="6" height="6" rx="3" fill="white" fill-opacity="0.25"/>
<rect x="29" y="378" width="6" height="6" rx="3" fill="white" fill-opacity="0.25"/>
<rect x="29" y="405" width="6" height="6" rx="3" fill="white" fill-opacity="0.25"/>
<rect x="29" y="432" width="6" height="6" rx="3" fill="white" fill-opacity="0.25"/>
<rect x="58" width="6" height="6" rx="3" fill="white" fill-opacity="0.25"/>
<rect x="58" y="27" width="6" height="6" rx="3" fill="white" fill-opacity="0.25"/>
<rect x="58" y="54" width="6" height="6" rx="3" fill="white" fill-opacity="0.25"/>
<rect x="58" y="81" width="6" height="6" rx="3" fill="white" fill-opacity="0.25"/>
<rect x="58" y="108" width="6" height="6" rx="3" fill="white" fill-opacity="0.25"/>
<rect x="58" y="135" width="6" height="6" rx="3" fill="white" fill-opacity="0.25"/>
<rect x="58" y="162" width="6" height="6" rx="3" fill="white" fill-opacity="0.25"/>
<rect x="58" y="189" width="6" height="6" rx="3" fill="white" fill-opacity="0.25"/>
<rect x="58" y="216" width="6" height="6" rx="3" fill="white" fill-opacity="0.25"/>
<rect x="58" y="243" width="6" height="6" rx="3" fill="white" fill-opacity="0.25"/>
<rect x="58" y="270" width="6" height="6" rx="3" fill="white" fill-opacity="0.25"/>
<rect x="58" y="297" width="6" height="6" rx="3" fill="white" fill-opacity="0.25"/>
<rect x="58" y="324" width="6" height="6" rx="3" fill="white" fill-opacity="0.25"/>
<rect x="58" y="351" width="6" height="6" rx="3" fill="white" fill-opacity="0.25"/>
<rect x="58" y="378" width="6" height="6" rx="3" fill="white" fill-opacity="0.25"/>
<rect x="58" y="405" width="6" height="6" rx="3" fill="white" fill-opacity="0.25"/>
<rect x="58" y="432" width="6" height="6" rx="3" fill="white" fill-opacity="0.25"/>
<rect x="87" width="6" height="6" rx="3" fill="white" fill-opacity="0.25"/>
<rect x="87" y="27" width="6" height="6" rx="3" fill="white" fill-opacity="0.25"/>
<rect x="87" y="54" width="6" height="6" rx="3" fill="white" fill-opacity="0.25"/>
<rect x="87" y="81" width="6" height="6" rx="3" fill="white" fill-opacity="0.25"/>
<rect x="87" y="108" width="6" height="6" rx="3" fill="white" fill-opacity="0.25"/>
<rect x="87" y="135" width="6" height="6" rx="3" fill="white" fill-opacity="0.25"/>
<rect x="87" y="162" width="6" height="6" rx="3" fill="white" fill-opacity="0.25"/>
<rect x="87" y="189" width="6" height="6" rx="3" fill="white" fill-opacity="0.25"/>
<rect x="87" y="216" width="6" height="6" rx="3" fill="white" fill-opacity="0.25"/>
<rect x="87" y="243" width="6" height="6" rx="3" fill="white" fill-opacity="0.25"/>
<rect x="87" y="270" width="6" height="6" rx="3" fill="white" fill-opacity="0.25"/>
<rect x="87" y="297" width="6" height="6" rx="3" fill="white" fill-opacity="0.25"/>
<rect x="87" y="324" width="6" height="6" rx="3" fill="white" fill-opacity="0.25"/>
<rect x="87" y="351" width="6" height="6" rx="3" fill="white" fill-opacity="0.25"/>
<rect x="87" y="378" width="6" height="6" rx="3" fill="white" fill-opacity="0.25"/>
<rect x="87" y="405" width="6" height="6" rx="3" fill="white" fill-opacity="0.25"/>
<rect x="87" y="432" width="6" height="6" rx="3" fill="white" fill-opacity="0.25"/>
<rect x="116" width="6" height="6" rx="3" fill="white" fill-opacity="0.25"/>
<rect x="116" y="27" width="6" height="6" rx="3" fill="white" fill-opacity="0.25"/>
<rect x="116" y="54" width="6" height="6" rx="3" fill="white" fill-opacity="0.25"/>
<rect x="116" y="81" width="6" height="6" rx="3" fill="white" fill-opacity="0.25"/>
<rect x="116" y="108" width="6" height="6" rx="3" fill="white" fill-opacity="0.25"/>
<rect x="116" y="135" width="6" height="6" rx="3" fill="white" fill-opacity="0.25"/>
<rect x="116" y="162" width="6" height="6" rx="3" fill="white" fill-opacity="0.25"/>
<rect x="116" y="189" width="6" height="6" rx="3" fill="white" fill-opacity="0.25"/>
<rect x="116" y="216" width="6" height="6" rx="3" fill="white" fill-opacity="0.25"/>
<rect x="116" y="243" width="6" height="6" rx="3" fill="white" fill-opacity="0.25"/>
<rect x="116" y="270" width="6" height="6" rx="3" fill="white" fill-opacity="0.25"/>
<rect x="116" y="297" width="6" height="6" rx="3" fill="white" fill-opacity="0.25"/>
<rect x="116" y="324" width="6" height="6" rx="3" fill="white" fill-opacity="0.25"/>
<rect x="116" y="351" width="6" height="6" rx="3" fill="white" fill-opacity="0.25"/>
<rect x="116" y="378" width="6" height="6" rx="3" fill="white" fill-opacity="0.25"/>
<rect x="116" y="405" width="6" height="6" rx="3" fill="white" fill-opacity="0.25"/>
<rect x="116" y="432" width="6" height="6" rx="3" fill="white" fill-opacity="0.25"/>
<rect x="145" width="6" height="6" rx="3" fill="white" fill-opacity="0.25"/>
<rect x="145" y="27" width="6" height="6" rx="3" fill="white" fill-opacity="0.25"/>
<rect x="145" y="54" width="6" height="6" rx="3" fill="white" fill-opacity="0.25"/>
<rect x="145" y="81" width="6" height="6" rx="3" fill="white" fill-opacity="0.25"/>
<rect x="145" y="108" width="6" height="6" rx="3" fill="white" fill-opacity="0.25"/>
<rect x="145" y="135" width="6" height="6" rx="3" fill="white" fill-opacity="0.25"/>
<rect x="145" y="162" width="6" height="6" rx="3" fill="white" fill-opacity="0.25"/>
<rect x="145" y="189" width="6" height="6" rx="3" fill="white" fill-opacity="0.25"/>
<rect x="145" y="216" width="6" height="6" rx="3" fill="white" fill-opacity="0.25"/>
<rect x="145" y="243" width="6" height="6" rx="3" fill="white" fill-opacity="0.25"/>
<rect x="145" y="270" width="6" height="6" rx="3" fill="white" fill-opacity="0.25"/>
<rect x="145" y="297" width="6" height="6" rx="3" fill="white" fill-opacity="0.25"/>
<rect x="145" y="324" width="6" height="6" rx="3" fill="white" fill-opacity="0.25"/>
<rect x="145" y="351" width="6" height="6" rx="3" fill="white" fill-opacity="0.25"/>
<rect x="145" y="378" width="6" height="6" rx="3" fill="white" fill-opacity="0.25"/>
<rect x="145" y="405" width="6" height="6" rx="3" fill="white" fill-opacity="0.25"/>
<rect x="145" y="432" width="6" height="6" rx="3" fill="white" fill-opacity="0.25"/>
<rect x="174" width="6" height="6" rx="3" fill="white" fill-opacity="0.25"/>
<rect x="174" y="27" width="6" height="6" rx="3" fill="white" fill-opacity="0.25"/>
<rect x="174" y="54" width="6" height="6" rx="3" fill="white" fill-opacity="0.25"/>
<rect x="174" y="81" width="6" height="6" rx="3" fill="white" fill-opacity="0.25"/>
<rect x="174" y="108" width="6" height="6" rx="3" fill="white" fill-opacity="0.25"/>
<rect x="174" y="135" width="6" height="6" rx="3" fill="white" fill-opacity="0.25"/>
<rect x="174" y="162" width="6" height="6" rx="3" fill="white" fill-opacity="0.25"/>
<rect x="174" y="189" width="6" height="6" rx="3" fill="white" fill-opacity="0.25"/>
<rect x="174" y="216" width="6" height="6" rx="3" fill="white" fill-opacity="0.25"/>
<rect x="174" y="243" width="6" height="6" rx="3" fill="white" fill-opacity="0.25"/>
<rect x="174" y="270" width="6" height="6" rx="3" fill="white" fill-opacity="0.25"/>
<rect x="174" y="297" width="6" height="6" rx="3" fill="white" fill-opacity="0.25"/>
<rect x="174" y="324" width="6" height="6" rx="3" fill="white" fill-opacity="0.25"/>
<rect x="174" y="351" width="6" height="6" rx="3" fill="white" fill-opacity="0.25"/>
<rect x="174" y="378" width="6" height="6" rx="3" fill="white" fill-opacity="0.25"/>
<rect x="174" y="405" width="6" height="6" rx="3" fill="white" fill-opacity="0.25"/>
<rect x="174" y="432" width="6" height="6" rx="3" fill="white" fill-opacity="0.25"/>
<rect x="203" width="6" height="6" rx="3" fill="white" fill-opacity="0.25"/>
<rect x="203" y="27" width="6" height="6" rx="3" fill="white" fill-opacity="0.25"/>
<rect x="203" y="54" width="6" height="6" rx="3" fill="white" fill-opacity="0.25"/>
<rect x="203" y="81" width="6" height="6" rx="3" fill="white" fill-opacity="0.25"/>
<rect x="203" y="108" width="6" height="6" rx="3" fill="white" fill-opacity="0.25"/>
<rect x="203" y="135" width="6" height="6" rx="3" fill="white" fill-opacity="0.25"/>
<rect x="203" y="162" width="6" height="6" rx="3" fill="white" fill-opacity="0.25"/>
<rect x="203" y="189" width="6" height="6" rx="3" fill="white" fill-opacity="0.25"/>
<rect x="203" y="216" width="6" height="6" rx="3" fill="white" fill-opacity="0.25"/>
<rect x="203" y="243" width="6" height="6" rx="3" fill="white" fill-opacity="0.25"/>
<rect x="203" y="270" width="6" height="6" rx="3" fill="white" fill-opacity="0.25"/>
<rect x="203" y="297" width="6" height="6" rx="3" fill="white" fill-opacity="0.25"/>
<rect x="203" y="324" width="6" height="6" rx="3" fill="white" fill-opacity="0.25"/>
<rect x="203" y="351" width="6" height="6" rx="3" fill="white" fill-opacity="0.25"/>
<rect x="203" y="378" width="6" height="6" rx="3" fill="white" fill-opacity="0.25"/>
<rect x="203" y="405" width="6" height="6" rx="3" fill="white" fill-opacity="0.25"/>
<rect x="203" y="432" width="6" height="6" rx="3" fill="white" fill-opacity="0.25"/>
<rect x="232" width="6" height="6" rx="3" fill="white" fill-opacity="0.25"/>
<rect x="232" y="27" width="6" height="6" rx="3" fill="white" fill-opacity="0.25"/>
<rect x="232" y="54" width="6" height="6" rx="3" fill="white" fill-opacity="0.25"/>
<rect x="232" y="81" width="6" height="6" rx="3" fill="white" fill-opacity="0.25"/>
<rect x="232" y="108" width="6" height="6" rx="3" fill="white" fill-opacity="0.25"/>
<rect x="232" y="135" width="6" height="6" rx="3" fill="white" fill-opacity="0.25"/>
<rect x="232" y="162" width="6" height="6" rx="3" fill="white" fill-opacity="0.25"/>
<rect x="232" y="189" width="6" height="6" rx="3" fill="white" fill-opacity="0.25"/>
<rect x="232" y="216" width="6" height="6" rx="3" fill="white" fill-opacity="0.25"/>
<rect x="232" y="243" width="6" height="6" rx="3" fill="white" fill-opacity="0.25"/>
<rect x="232" y="270" width="6" height="6" rx="3" fill="white" fill-opacity="0.25"/>
<rect x="232" y="297" width="6" height="6" rx="3" fill="white" fill-opacity="0.25"/>
<rect x="232" y="324" width="6" height="6" rx="3" fill="white" fill-opacity="0.25"/>
<rect x="232" y="351" width="6" height="6" rx="3" fill="white" fill-opacity="0.25"/>
<rect x="232" y="378" width="6" height="6" rx="3" fill="white" fill-opacity="0.25"/>
<rect x="232" y="405" width="6" height="6" rx="3" fill="white" fill-opacity="0.25"/>
<rect x="232" y="432" width="6" height="6" rx="3" fill="white" fill-opacity="0.25"/>
<rect x="261" width="6" height="6" rx="3" fill="white" fill-opacity="0.25"/>
<rect x="261" y="27" width="6" height="6" rx="3" fill="white" fill-opacity="0.25"/>
<rect x="261" y="54" width="6" height="6" rx="3" fill="white" fill-opacity="0.25"/>
<rect x="261" y="81" width="6" height="6" rx="3" fill="white" fill-opacity="0.25"/>
<rect x="261" y="108" width="6" height="6" rx="3" fill="white" fill-opacity="0.25"/>
<rect x="261" y="135" width="6" height="6" rx="3" fill="white" fill-opacity="0.25"/>
<rect x="261" y="162" width="6" height="6" rx="3" fill="white" fill-opacity="0.25"/>
<rect x="261" y="189" width="6" height="6" rx="3" fill="white" fill-opacity="0.25"/>
<rect x="261" y="216" width="6" height="6" rx="3" fill="white" fill-opacity="0.25"/>
<rect x="261" y="243" width="6" height="6" rx="3" fill="white" fill-opacity="0.25"/>
<rect x="261" y="270" width="6" height="6" rx="3" fill="white" fill-opacity="0.25"/>
<rect x="261" y="297" width="6" height="6" rx="3" fill="white" fill-opacity="0.25"/>
<rect x="261" y="324" width="6" height="6" rx="3" fill="white" fill-opacity="0.25"/>
<rect x="261" y="351" width="6" height="6" rx="3" fill="white" fill-opacity="0.25"/>
<rect x="261" y="378" width="6" height="6" rx="3" fill="white" fill-opacity="0.25"/>
<rect x="261" y="405" width="6" height="6" rx="3" fill="white" fill-opacity="0.25"/>
<rect x="261" y="432" width="6" height="6" rx="3" fill="white" fill-opacity="0.25"/>
</svg>
